<svg width="26" height="33" viewBox="0 0 26 33" fill="none" xmlns="http://www.w3.org/2000/svg">
  <path fill-rule="evenodd" clip-rule="evenodd" d="M19.2811 24L19.6534 23.4437C20.504 22.1731 21 20.646 21 19L21 11L5 11L5 19C5 20.646 5.49602 22.1731 6.34656 23.4437L6.71891 24H6.7387L7.03682 24.3331C8.5031 25.9713 10.6308 27 13 27C15.3692 27 17.4969 25.9713 18.9632 24.3331L19.2613 24H19.2811ZM22.5008 24H24H25V23V13C25 6.37258 19.6274 1 13 1C6.37258 1 1 6.37258 1 13V23V24H2H4.33802H5.51555C5.3017 23.6805 5.10777 23.3466 4.93552 23C4.33671 21.795 4 20.4368 4 19L4 11V10H5L21 10H22V11L22 19C22 20.4368 21.6633 21.795 21.0645 23C20.8922 23.3466 20.6983 23.6805 20.4844 24H21.662H22C22.4987 23.9644 22.4988 23.9647 22.4988 23.9651L22.4988 23.966L22.499 23.9683L22.4994 23.9748L22.5005 23.9953C22.5006 23.9968 22.5007 23.9984 22.5008 24ZM22.4481 25H25H26V24V13C26 5.8203 20.1797 0 13 0C5.8203 0 0 5.8203 0 13V24V25H1H5.51555H6.29168C7.93964 26.8412 10.3345 28 13 28C15.6655 28 18.0604 26.8412 19.7083 25H20.4844H21.4382C21.4373 25.0057 21.4365 25.0115 21.4356 25.0173C21.3412 25.6271 21.1239 26.4355 20.6351 27.2405C19.7224 28.7439 17.7931 30.348 13.6089 30.4899C13.3346 30.1889 12.9393 30 12.5 30C11.6716 30 11 30.6716 11 31.5C11 32.3284 11.6716 33 12.5 33C13.3284 33 14 32.3284 14 31.5C14 31.4911 13.9999 31.4823 13.9998 31.4735C18.2284 31.2431 20.4033 29.5491 21.4899 27.7595C22.0636 26.8145 22.3151 25.8729 22.4238 25.1702C22.4328 25.1119 22.4409 25.0551 22.4481 25Z" fill="#006AFF"></path>
</svg>
