<?xml version="1.0" encoding="UTF-8"?>
<svg width="245px" height="23px" viewBox="0 0 245 23" version="1.1" xmlns="http://www.w3.org/2000/svg" xmlns:xlink="http://www.w3.org/1999/xlink">
    <!-- Generator: Sketch 57.1 (83088) - https://sketch.com -->
    <title>logo</title>
    <desc>Created with Sketch.</desc>
    <g id="responsive" stroke="none" stroke-width="1" fill="none" fill-rule="evenodd">
        <g id="1600" transform="translate(-39.000000, -18.000000)" fill="#FFFFFF">
            <g id="//-hero">
                <g id="logo" transform="translate(39.000000, 18.000000)">
                    <g id="logoMark">
                        <polygon id="logoMark_PathItem_" points="8.63506535 21.59136 9.45830859 23.0080095 12.5886304 17.676225 11.7653871 16.259292"></polygon>
                        <polygon id="logoMark_PathItem_2" points="5.55239753 16.2867915 4.72915429 14.870142 10.9421439 14.8426425 11.7653871 16.259292"></polygon>
                        <polygon id="logoMark_PathItem_3" points="3.90591106 13.4534925 4.72915429 14.870142 7.85947606 9.538074 7.03623282 8.1214245"></polygon>
                        <polygon id="logoMark_PathItem_4" points="0.823243235 8.148924 0 6.7322745 6.21298959 6.704775 7.03623282 8.1214245"></polygon>
                        <polygon id="logoMark_PathItem_5" points="25.9177516 8.148924 26.7409948 6.7322745 20.5280052 6.704775 19.704762 8.1214245"></polygon>
                        <polygon id="logoMark_PathItem_6" points="22.8350838 13.4534925 22.0118405 14.870142 18.8815188 9.538074 19.704762 8.1214245"></polygon>
                        <polygon id="logoMark_PathItem_7" points="21.1885973 16.2867915 22.0118405 14.870142 15.7988509 14.8426425 14.9756077 16.259292"></polygon>
                        <polygon id="logoMark_PathItem_8" points="18.1059295 21.59136 17.2826862 23.0080095 14.1523645 17.676225 14.9756077 16.259292"></polygon>
                        <polygon id="logoMark_PathItem_9" points="5.55867529 0 3.91218882 0 6.99485665 5.359284 8.64134312 5.359284"></polygon>
                        <polygon id="logoMark_PathItem_10" points="11.7237256 0 13.3704974 0 10.2878296 5.359284 8.64134312 5.359284"></polygon>
                        <polygon id="logoMark_PathItem_11" points="15.0169839 0 13.3704974 0 16.4528799 5.359284 18.0993664 5.359284"></polygon>
                        <polygon id="logoMark_PathItem_12" points="21.1820342 0 22.828806 0 19.7461382 5.359284 18.0996517 5.359284"></polygon>
                    </g>
                    <polygon id="fullLogo" points="33.6 1.05 36.1354543 1.05 40.2664501 17.7143009 45.0522293 1.05 46.818792 1.05 51.6045712 17.7725697 55.7924802 1.05 58.1 1.05 52.8008751 21.7 50.5218119 21.7 45.9070541 5.38216983 41.149168 21.7 38.8988431 21.7"></polygon>
                    <path d="M60.55,1.05 L62.9544293,1.05 L62.9544293,8.99190781 C63.649475,7.57679686 65.3292096,6.33495081 67.8205232,6.33495081 C70.9487018,6.33495081 73.15,8.03895085 73.15,12.429071 L73.15,21.7 L70.745714,21.7 L70.745714,12.256006 C70.745714,9.5985349 69.6162467,8.41484371 67.1829706,8.41484371 C64.9529974,8.41484371 62.9544293,9.82981184 62.9544293,12.5449237 L62.9544293,21.7 L60.55,21.7 L60.55,1.05 Z" id="fullLogo-2"></path>
                    <path d="M131.95,14.1566666 L131.95,13.9292256 C131.95,9.43141704 134.822158,6.3 138.917226,6.3 C142.358089,6.3 145.6,8.37818978 145.6,13.7011934 L145.6,14.4695211 L134.395509,14.4695211 C134.509526,17.8568128 136.130341,19.7359108 139.173102,19.7359108 C141.476499,19.7359108 142.812975,18.8816909 143.125747,17.1455494 L145.486096,17.1455494 C144.974455,20.1340944 142.500315,21.7 139.144668,21.7 C134.935894,21.7 131.95,18.7393256 131.95,14.1566666 Z M143.182756,12.5622992 C142.955313,9.48822802 141.362763,8.26425814 138.917226,8.26425814 C136.499981,8.26425814 134.878913,9.91526759 134.480839,12.5622992 L143.182756,12.5622992 Z" id="fullLogo-3"></path>
                    <polygon id="fullLogo-4" points="146.3 1.05 148.835454 1.05 152.96645 17.7143009 157.751948 1.05 159.51851 1.05 164.304853 17.7725697 168.49248 1.05 170.8 1.05 165.500875 21.7 163.221812 21.7 158.607054 5.38216983 153.849168 21.7 151.598843 21.7"></polygon>
                    <path d="M171.15,14.1281895 L171.15,13.9001594 C171.15,9.43136027 174.267235,6.3 178.49983,6.3 C182.732426,6.3 185.85,9.40303949 185.85,13.8718105 L185.85,14.0998406 C185.85,18.5969605 182.732652,21.7 178.471348,21.7 C174.210044,21.7 171.15,18.4835085 171.15,14.1281895 M183.390204,14.1281895 L183.390204,13.9292121 C183.390204,10.4846342 181.474201,8.26415573 178.499859,8.26415573 C175.496977,8.26415573 173.609513,10.4846342 173.609513,13.9001594 L173.609513,14.1281895 C173.609513,17.5153095 175.468155,19.7360413 178.499859,19.7360413 C181.502825,19.7360413 183.390204,17.4872139 183.390204,14.1281895" id="fullLogo-5"></path>
                    <path d="M188.65,6.56066322 L191.054281,6.56066322 L191.054281,8.96288732 C191.749353,7.54468475 193.429227,6.3 195.920363,6.3 C199.048535,6.3 201.25,8.00775202 201.25,12.4079074 L201.25,21.7 L198.845719,21.7 L198.845719,12.2344182 C198.845719,9.57087247 197.715968,8.3844755 195.28287,8.3844755 C193.052472,8.3844755 191.054166,9.80267807 191.054166,12.5241681 L191.054166,21.7 L188.65,21.7 L188.65,6.56066322 Z" id="fullLogo-6"></path>
                    <path d="M204.05,14.284018 L204.05,14.0555345 C204.05,9.49218315 206.931399,6.26929648 211.080815,6.26929648 C213.587779,6.26929648 215.14371,7.46728341 216.00811,8.92207451 L216.00811,1.05 L218.4,1.05 L218.4,21.4429984 L216.00811,21.4429984 L216.00811,18.876085 C215.143682,20.3309043 213.040362,21.7 210.850181,21.7 C206.902559,21.7 204.05,18.9330084 204.05,14.2841591 M216.094687,14.0847861 L216.094687,13.8563026 C216.094687,10.0344224 214.25067,8.23730101 211.311278,8.23730101 C208.314547,8.23730101 206.528011,10.3196037 206.528011,13.9418852 L206.528011,14.1697481 C206.528011,17.934874 208.573992,19.7318826 211.10974,19.7318826 C213.904676,19.7318826 216.094687,17.906497 216.094687,14.0846732" id="fullLogo-7"></path>
                    <path d="M221.2,14.1566666 L221.2,13.9292256 C221.2,9.43141704 224.072188,6.3 228.167297,6.3 C231.608168,6.3 234.85,8.37818978 234.85,13.7011934 L234.85,14.4695211 L223.645563,14.4695211 C223.759468,17.8568128 225.3803,19.7359108 228.42312,19.7359108 C230.726541,19.7359108 232.063143,18.8816909 232.375891,17.1455494 L234.736179,17.1455494 C234.224477,20.1340944 231.750367,21.7 228.394799,21.7 C224.185952,21.7 221.2,18.7393256 221.2,14.1566666 Z M232.43304,12.5622992 C232.205595,9.48822802 230.613029,8.26425814 228.167466,8.26425814 C225.750197,8.26425814 224.129365,9.91526759 223.730922,12.5622992 L232.43304,12.5622992 Z" id="fullLogo-8"></path>
                    <path d="M237.65,6.56060693 L240.042627,6.56060693 L240.042627,9.2819353 C240.993664,7.57403378 242.290645,6.38694532 245,6.3 L245,8.55794446 C241.973605,8.70280561 240.042627,9.65791583 240.042627,13.3921271 L240.042627,21.7 L237.65,21.7 L237.65,6.56060693 Z" id="fullLogo-9"></path>
                    <path d="M75.95,14.1566666 L75.95,13.9292256 C75.95,9.43141704 78.82213,6.3 82.9172256,6.3 C86.358061,6.3 89.6,8.37818978 89.6,13.7011934 L89.6,14.4695211 L78.3955376,14.4695211 C78.5093855,17.8568128 80.1302285,19.7359108 83.1729898,19.7359108 C85.4766111,19.7359108 86.8129748,18.8816909 87.1257473,17.1455494 L89.4861239,17.1455494 C88.9744549,20.1340944 86.5002304,21.7 83.1446684,21.7 C78.9358936,21.7 75.95,18.7393256 75.95,14.1566666 Z M87.1827557,12.5622992 C86.9552847,9.48822802 85.362735,8.26425814 82.9172256,8.26425814 C80.5000094,8.26425814 78.8788852,9.91526759 78.4808392,12.5622992 L87.1827557,12.5622992 Z" id="fullLogo-10"></path>
                    <path d="M92.4,6.56066322 L94.8042806,6.56066322 L94.8042806,8.96288732 C95.499468,7.54468475 97.1792274,6.3 99.6705066,6.3 C102.798678,6.3 105,8.00775202 105,12.4079074 L105,21.7 L102.595691,21.7 L102.595691,12.2344182 C102.595691,9.57087247 101.466226,8.3844755 99.0329841,8.3844755 C96.8029874,8.3844755 94.8042806,9.80267807 94.8042806,12.5241681 L94.8042806,21.7 L92.4,21.7 L92.4,6.56066322 Z" id="fullLogo-11"></path>
                    <polygon id="fullLogo-12" points="106.75 1.05 109.285454 1.05 113.41645 17.7143009 118.202229 1.05 119.968792 1.05 124.754853 17.7725697 128.94248 1.05 131.25 1.05 125.951157 21.7 123.672094 21.7 119.057054 5.38216983 114.29945 21.7 112.049125 21.7"></polygon>
                </g>
            </g>
        </g>
    </g>
</svg>